<svg width="6.214844" height="6.213867" viewBox="0 0 6.21484 6.21387" fill="none" xmlns="http://www.w3.org/2000/svg" xmlns:xlink="http://www.w3.org/1999/xlink">
	<desc>
			Created with Pixso.
	</desc>
	<defs/>
	<path id="Vector" d="M5.94 4.59L4.45 3.1L5.94 1.61C6.31 1.25 6.3 0.64 5.93 0.27C5.57 -0.09 4.96 -0.1 4.59 0.27L3.1 1.76L1.61 0.27C1.25 -0.1 0.64 -0.09 0.27 0.27C-0.09 0.64 -0.1 1.25 0.27 1.61L1.75 3.1L0.27 4.59C-0.1 4.96 -0.09 5.56 0.27 5.93C0.64 6.3 1.25 6.3 1.61 5.94L3.1 4.45L4.59 5.94C4.96 6.3 5.57 6.3 5.93 5.93C6.3 5.56 6.31 4.96 5.94 4.59Z" fill="#FFFFFF" fill-opacity="1.000000" fill-rule="nonzero"/>
</svg>
